# xmcd CD database file
#
# Track frame offsets:
#	150
#	24842
#	44827
#	65277
#	85650
#	107417
#	123492
#	134805
#	158757
#	176307
#	196035
#	204365
#	221760
#	240655
#	260832
#	284992
#
# Disc length: 4093 seconds
#
# Revision: 0
# Processed by: cddbd v1.5.2PL0 Copyright (c) Steve Scherf et al.
# Submitted via: CDex 1.70beta2
#
DISCID=eb0ffb10
DTITLE=Andre Gagnon - Reves d'automne
DYEAR=1999
DGENRE=New Age
TTITLE0=L'eternel Retour
TTITLE1=Apres La Pluie
TTITLE2=Reves Ii
TTITLE3=Bobichon
TTITLE4=Rachel Amoureuse
TTITLE5=Juliette Et Alexzndre
TTITLE6=Adele
TTITLE7=Le Reve De Julie
TTITLE8=Berceuse Pour Annabelle
TTITLE9=Un An Deja
TTITLE10=Dernier Rideau
TTITLE11=Un Amour Particulier
TTITLE12=Reves D'automne
TTITLE13=My Funny Valentine
TTITLE14=Aria
TTITLE15=Smoke Gets In Your Eyes
EXTD=YEAR: 1999
EXTT0=
EXTT1=
EXTT2=
EXTT3=
EXTT4=
EXTT5=
EXTT6=
EXTT7=
EXTT8=
EXTT9=
EXTT10=
EXTT11=
EXTT12=
EXTT13=
EXTT14=
EXTT15=
PLAYORDER=
